<mxfile host="app.diagrams.net" modified="2024-05-11T07:53:06.964Z" agent="Mozilla/5.0 (Windows NT 10.0; Win64; x64; rv:108.0) Gecko/20100101 Firefox/108.0" version="24.4.0" etag="NESq4KsDHIs-wG9PtYfQ" type="github">
  <diagram name="Page-1" id="NzIRHr1t4w2bOF7lI3u0">
    <mxGraphModel>
      <root>
        <mxCell id="0" />
        <mxCell id="1" parent="0" />
      </root>
    </mxGraphModel>
  </diagram>
</mxfile>
